<svg id="图层_1" data-name="图层 1" xmlns="http://www.w3.org/2000/svg" viewBox="0 0 100 100"><defs><style>.cls-1{fill:#fff;}</style></defs><path class="cls-1" d="M27.3244,66.6514A11.623,11.623,0,0,1,15.6421,54.9689a11.3664,11.3664,0,0,1,3.3267-8.3169,10.9873,10.9873,0,0,1,8.1235-3.3655h1.47A16.4108,16.4108,0,0,1,33.32,31.372a15.5577,15.5577,0,0,1,11.5664-4.8741A15.4328,15.4328,0,0,1,56.4144,31.372a16.4816,16.4816,0,0,1,4.7193,11.9145v1.2528h4.6421V43.2865a21.2477,21.2477,0,0,0-5.9573-15.1252,19.3335,19.3335,0,0,0-14.6223-6.3054,20.0923,20.0923,0,0,0-13.23,4.758,20.973,20.973,0,0,0-7.2725,12.2627A15.6342,15.6342,0,0,0,14.8683,44.37a16.4457,16.4457,0,0,0,.89,22.1656,15.7445,15.7445,0,0,0,11.5663,4.758h7.2968V66.6514Z"/><path class="cls-1" d="M52.5829,64.4333a5.9643,5.9643,0,1,0-4.2761-1.7466A5.8152,5.8152,0,0,0,52.5829,64.4333Z"/><path class="cls-1" d="M44.1511,70.9168H82.6965v7.2273h4.8182V58.8714a9.6648,9.6648,0,0,0-9.6364-9.6363H61.0147V66.0987H44.1511V44.4169H39.3329V78.1441h4.8182Z"/></svg>